#!OML:ASF E:\Steps\Project 1\Capture day 1\Session 2\Subject.ASF
:FULLY-SPECIFIED
:DEGREES
388
root 8.78039 18.4897 18.9238 -44.8209 -86.9571 -286.281
lowerback -23.6595 -1.20629 -5.15294
upperback -2.85486 -0.327558 -1.67431
thorax 10.0713 -0.431686 0.970267
lowerneck 2.13027 -1.20242 -12.8173
upperneck -8.96934 -1.2443 14.3072
head -2.7758 -0.795487 6.58105
rclavicle 3.47873e-015 -6.36111e-015
rhumerus -15.3649 12.5811 -64.0798
rradius 54.38
rwrist -5.7166
rhand 7.05616 -50.9775
rfingers 7.12502
rthumb 32.3291 -78.1169
lclavicle 3.47873e-015 -6.36111e-015
lhumerus -41.9912 -19.5335 62.92
lradius 24.1307
lwrist -10.2492
lhand -27.2744 -22.0978
lfingers 7.12502
lthumb -0.685088 7.88085
rfemur -37.005 2.96208 17.243
rtibia 16.0237
rfoot 19.0029 -13.5696
rtoes -24.9951
lfemur -37.6483 -5.69423 -16.3194
ltibia 17.5885
lfoot 28.1585 7.9283
ltoes -41.152
389
root 8.79084 18.0782 18.9126 -32.5557 -86.7589 -298.661
lowerback -23.1689 -1.12703 -5.09207
upperback -2.8335 -0.24535 -1.86847
thorax 9.82776 -0.379582 0.752511
lowerneck 1.98277 -1.28783 -12.0087
upperneck -9.18473 -1.32171 13.9554
head -2.81412 -0.847103 6.33207
rclavicle 4.37326e-015 -1.86858e-014
rhumerus -15.1809 12.5777 -65.0559
rradius 54.132
rwrist -5.65063
rhand 6.54238 -50.9158
rfingers 7.12502
rthumb 31.84 -78.1537
lclavicle 4.37326e-015 -1.86858e-014
lhumerus -42.4702 -19.9103 63.1338
lradius 24.4818
lwrist -9.46254
lhand -27.5533 -22.3191
lfingers 7.12502
lthumb -0.954479 7.65847
rfemur -37.6694 2.90435 17.7126
rtibia 19.2548
rfoot 18.4432 -11.3084
rtoes -27.0922
lfemur -38.7909 -5.24921 -16.5093
ltibia 21.2191
lfoot 28.3595 6.57026
ltoes -41.1148
390
root 8.80868 17.6559 18.901 -23.5924 -86.3498 -307.709
lowerback -22.6265 -1.12172 -5.31235
upperback -2.84063 -0.206455 -1.97196
thorax 9.52701 -0.359364 0.783058
lowerneck 2.09948 -1.48047 -11.483
upperneck -9.8487 -1.54913 13.6997
head -3.00648 -0.981706 6.17976
rclavicle -6.36111e-015 -1.66979e-014
rhumerus -15.1662 13.0114 -65.7463
rradius 54.1091
rwrist -5.83758
rhand 6.48595 -51.4714
rfingers 7.12502
rthumb 31.7863 -78.72
lclavicle -6.36111e-015 -1.66979e-014
lhumerus -42.8869 -19.9302 63.3908
lradius 24.6471
lwrist -8.86706
lhand -27.8361 -23.2063
lfingers 7.12502
lthumb -1.22762 6.76995
rfemur -39.0233 1.51577 18.5745
rtibia 23.7096
rfoot 15.8624 -7.48834
rtoes -28.4568
lfemur -40.2605 -4.69976 -16.9538
ltibia 25.9796
lfoot 25.023 3.92931
ltoes -42.7571
391
root 8.83143 17.2294 18.8958 -19.0081 -85.9159 -312.239
lowerback -22.0048 -1.05426 -5.68937
upperback -2.99306 -0.0791476 -1.99515
thorax 9.01575 -0.29926 1.01977
lowerneck 2.20373 -1.6932 -11.1146
upperneck -10.4123 -1.82224 13.3626
head -3.16401 -1.12723 6.02833
rclavicle 9.54166e-015 7.95139e-016
rhumerus -15.2986 13.1472 -66.2393
rradius 54.0202
rwrist -5.65103
rhand 6.7979 -52.1814
rfingers 7.12502
rthumb 32.0833 -79.3706
lclavicle 9.54166e-015 7.95139e-016
lhumerus -43.1274 -19.2741 63.6048
lradius 24.6255
lwrist -8.6916
lhand -27.7935 -24.1649
lfingers 7.12502
lthumb -1.18651 5.81153
rfemur -40.7178 0.691331 19.0092
rtibia 29.3998
rfoot 1.23746 -4.21997
rtoes -34.7677
lfemur -42.1049 -4.17855 -17.5677
ltibia 31.5757
lfoot 15.8872 0.579075
ltoes -44.4782
392
root 8.85826 16.7989 18.894 -15.1705 -85.4645 -316.197
lowerback -21.1868 -0.768897 -5.66665
upperback -3.09493 0.25149 -2.29476
thorax 8.44611 -0.12112 0.78229
lowerneck 3.29949 -2.05355 -10.8077
upperneck -11.7585 -2.30302 13.4068
head -3.68964 -1.42965 6.0545
rclavicle -6.85807e-015 2.62396e-014
rhumerus -15.6869 13.0144 -67.0239
rradius 53.7702
rwrist -5.37387
rhand 6.70199 -52.5774
rfingers 7.12502
rthumb 31.992 -79.785
lclavicle -6.85807e-015 2.62396e-014
lhumerus -43.1235 -19.1852 63.7348
lradius 24.8073
lwrist -8.09236
lhand -28.0212 -23.6387
lfingers 7.12502
lthumb -1.40642 6.33644
rfemur -42.7191 0.906099 18.8297
rtibia 35.4557
rfoot -10.7219 -2.20258
rtoes -34.486
lfemur -43.8721 -4.08552 -17.9137
ltibia 37.465
lfoot 5.09791 -1.13314
ltoes -47.3368
